<?xml version="1.0" encoding="utf-8"?>
<!-- Generator: Adobe Illustrator 25.2.1, SVG Export Plug-In . SVG Version: 6.00 Build 0)  -->
<svg version="1.1" id="Layer_1" xmlns="http://www.w3.org/2000/svg" xmlns:xlink="http://www.w3.org/1999/xlink" x="0px" y="0px"
	 viewBox="0 0 206 239" style="enable-background:new 0 0 206 239;" xml:space="preserve">
<path d="M44.4,210.6l-0.5,0.3c-1.5,0.9-2.8,1.5-3.8,1.7c-1.1,0.2-2.2,0-3.2-0.5c-0.3-0.2-0.6-0.3-0.8-0.5c-0.3-0.2-0.5-0.4-0.6-0.5
	c-0.1-0.2-0.4-0.4-0.6-0.8c-0.3-0.3-0.5-0.6-0.6-0.7c-0.5-0.6-1.1-0.6-1.8-0.2l-0.7-1.1c1.3-0.8,2.5-0.7,3.4,0.3
	c0.1,0.1,0.3,0.4,0.6,0.7c0.3,0.3,0.4,0.5,0.6,0.6c0.1,0.1,0.3,0.3,0.5,0.5c0.2,0.2,0.5,0.3,0.7,0.5c1.2,0.6,2.5,0.6,3.9-0.1
	l-0.1-0.1c-1.3-0.1-2.4-0.7-3.1-1.9c-0.7-1.1-0.9-2.2-0.6-3.4c0.3-1.2,1-2.2,2.1-2.9c1.2-0.8,2.4-1,3.6-0.7c1.2,0.3,2.2,1,2.9,2.1
	c0.7,1.2,1,2.4,0.6,3.6C46.6,208.8,45.7,209.8,44.4,210.6z M45.5,207.1c0.2-0.9,0.1-1.7-0.4-2.4c-0.5-0.8-1.2-1.2-2-1.4
	c-0.9-0.2-1.7,0-2.6,0.5c-0.8,0.5-1.4,1.2-1.6,2.1c-0.2,0.9-0.1,1.7,0.4,2.4c0.5,0.8,1.2,1.2,2,1.4c0.9,0.2,1.7,0,2.6-0.5
	C44.8,208.6,45.3,207.9,45.5,207.1z"/>
<path d="M37.9,191.7c1.3,0.4,2.2,1.2,2.8,2.4c0.6,1.2,0.7,2.5,0.3,3.7c-0.5,1.2-1.4,2.2-2.8,2.9s-2.7,0.8-4,0.5
	c-1.3-0.4-2.2-1.2-2.8-2.4c-0.6-1.2-0.7-2.5-0.2-3.7c0.4-1.3,1.4-2.2,2.7-2.9C35.3,191.4,36.6,191.3,37.9,191.7z M39.6,197.3
	c0.3-0.9,0.3-1.8-0.1-2.6c-0.4-0.8-1.1-1.4-2-1.6c-0.9-0.3-1.9-0.1-2.9,0.4c-1,0.5-1.7,1.2-2,2.1c-0.4,0.9-0.3,1.7,0.1,2.6
	c0.4,0.8,1.1,1.4,2,1.6c0.9,0.2,1.9,0.1,2.9-0.4C38.5,198.9,39.2,198.2,39.6,197.3z"/>
<path d="M38,188.9l-1.4,0.5l-0.2-0.6c-0.3-0.7-0.9-1-1.8-0.7l-6.9,2l-2.4-6.3l9.4-3.5l0.5,1.4l-8,3l1.3,3.6l5.6-1.6
	c1.9-0.5,3.1,0,3.7,1.6L38,188.9z"/>
<path d="M29.1,171.2l-0.4-1.5c1,0.1,1.9,0.4,2.6,1c0.7,0.6,1.2,1.4,1.4,2.4c0.3,1.3,0.2,2.6-0.5,3.7c-0.7,1.1-1.8,1.9-3.3,2.3
	c-1.5,0.4-2.8,0.3-4-0.4c-1.2-0.6-1.9-1.6-2.3-3c-0.3-1.3-0.2-2.4,0.5-3.5c0.7-1.1,1.6-1.8,3-2.2c0.2-0.1,0.5-0.1,0.8-0.2l0.2,0
	l2,7.5c0.9-0.3,1.5-0.9,1.9-1.6c0.4-0.7,0.5-1.5,0.2-2.4c-0.2-0.6-0.4-1.1-0.8-1.4C30.1,171.6,29.6,171.3,29.1,171.2z M27.8,177.7
	l-1.6-6.2c-0.9,0.3-1.5,0.8-1.9,1.5c-0.4,0.7-0.5,1.5-0.3,2.3c0.2,0.9,0.7,1.5,1.4,1.9C26.1,177.7,26.9,177.9,27.8,177.7z"/>
<path d="M27,159.9l-0.2-1.6c1,0.2,1.8,0.6,2.4,1.3c0.6,0.6,1,1.5,1.2,2.5c0.2,1.4-0.1,2.6-0.9,3.6c-0.8,1-2,1.7-3.5,1.9
	c-1.5,0.2-2.8,0-3.9-0.8c-1.1-0.8-1.8-1.8-2-3.2c-0.2-1.3,0.1-2.5,0.8-3.5c0.8-1,1.8-1.6,3.2-1.8c0.2,0,0.5-0.1,0.9-0.1l0.2,0
	l1.2,7.7c0.9-0.2,1.6-0.7,2.1-1.4c0.5-0.7,0.6-1.5,0.5-2.3c-0.1-0.6-0.3-1.1-0.7-1.5C28,160.4,27.5,160.1,27,159.9z M25,166.3
	l-1-6.3c-0.9,0.2-1.6,0.6-2,1.3c-0.5,0.7-0.7,1.4-0.5,2.2c0.1,0.9,0.5,1.6,1.2,2.1C23.3,166.1,24.1,166.3,25,166.3z"/>
<path d="M27.3,136.8c-1.4,0.9-3.2,1.2-5.4,1c-2.3-0.2-4-1-5.1-2.1s-1.6-2.5-1.5-4c0.2-1.5,0.9-2.7,2.3-3.6c1.4-0.9,3.2-1.2,5.4-1
	c2.3,0.2,4,1,5.1,2.1c1.1,1.2,1.6,2.5,1.5,4C29.4,134.7,28.7,135.9,27.3,136.8z M18.6,129.3c-1.1,0.6-1.7,1.5-1.8,2.5
	c-0.1,1.1,0.3,2,1.2,2.8c0.9,0.8,2.3,1.4,4.1,1.6c1.8,0.2,3.2,0,4.3-0.6c1.1-0.6,1.7-1.5,1.8-2.5c0.1-1.1-0.3-2-1.2-2.8
	c-0.9-0.8-2.3-1.4-4.1-1.6C21.1,128.5,19.6,128.7,18.6,129.3z"/>
<path d="M29,123.5c-1.5,0.7-3.3,0.8-5.5,0.3c-2.2-0.5-3.8-1.4-4.8-2.7c-1-1.3-1.3-2.7-1-4.2c0.3-1.5,1.3-2.6,2.7-3.3
	c1.5-0.7,3.3-0.8,5.5-0.3c2.2,0.5,3.8,1.4,4.8,2.7c1,1.3,1.3,2.7,1,4.2C31.4,121.7,30.5,122.8,29,123.5z M21.3,115
	c-1.1,0.5-1.8,1.3-2.1,2.3c-0.2,1,0,2,0.8,3c0.8,0.9,2.1,1.6,3.8,2c1.8,0.4,3.2,0.4,4.3-0.1c1.1-0.5,1.8-1.2,2.1-2.3
	c0.2-1,0-2-0.8-3c-0.8-0.9-2.1-1.6-3.8-2C23.9,114.5,22.4,114.5,21.3,115z"/>
<path d="M35.3,107.1l-9.3-3.8l2-4.8c0.3-0.8,0.8-1.3,1.5-1.6c0.7-0.3,1.4-0.3,2.2,0.1c0.6,0.2,1,0.6,1.3,1.2
	c0.1,0.2,0.2,0.5,0.2,0.7l0.1,0c0.2-0.2,0.4-0.3,0.7-0.5c0.6-0.3,1.2-0.3,1.8,0c0.8,0.3,1.3,0.8,1.6,1.5c0.3,0.7,0.3,1.4,0,2.2
	L35.3,107.1z M34.7,105.3l1.4-3.4c0.2-0.4,0.2-0.8,0-1.1c-0.2-0.4-0.5-0.7-0.9-0.8c-0.4-0.2-0.8-0.2-1.2,0c-0.4,0.2-0.7,0.4-0.8,0.8
	l-1.4,3.4L34.7,105.3z M30.6,103.6l1.3-3.2c0.2-0.4,0.2-0.8,0-1.1c-0.1-0.4-0.4-0.6-0.8-0.8c-0.4-0.2-0.8-0.2-1.2,0
	c-0.4,0.2-0.6,0.4-0.8,0.8l-1.3,3.2L30.6,103.6z"/>
<path d="M39.5,97.2l-8.8-4.7l0.7-1.3l7.2,3.8l0.2-0.4l-5.5-7.2l1.2-2.3l8.8,4.7l-0.7,1.3l-7.2-3.8l-0.2,0.4l5.5,7.2L39.5,97.2z"/>
<path d="M45.9,90.1L42.7,88l0.1-0.2c0.3-0.4,0.3-0.7,0.3-1c-0.1-0.3-0.3-0.6-0.7-0.9l-5.7-4.5l3.7-5.6l7.2,4.8l0.8-1.2l3.2,2.1
	l-0.8,1.2l-2-1.3l-4.1,6.1l2,1.3L45.9,90.1z M44.1,85.8l2.7-4l-6-4L38.7,81l4.5,3.6c0.4,0.3,0.7,0.6,0.8,0.9
	C44.1,85.6,44.1,85.7,44.1,85.8z"/>
<path d="M55,71.6c0.2,1.3-0.2,2.5-1.1,3.6c-0.9,1.1-2,1.6-3.3,1.7c-1.3,0.1-2.6-0.4-3.8-1.4c-1.2-1-1.9-2.1-2-3.4
	c-0.2-1.3,0.2-2.5,1.1-3.6s2-1.6,3.3-1.7c1.3-0.1,2.6,0.3,3.8,1.3C54.1,69.1,54.8,70.2,55,71.6z M50.5,75.4c1,0,1.7-0.4,2.3-1.1
	c0.6-0.7,0.8-1.5,0.7-2.5c-0.1-0.9-0.6-1.8-1.5-2.5c-0.9-0.7-1.8-1.1-2.7-1c-0.9,0-1.7,0.4-2.3,1.1c-0.6,0.7-0.8,1.5-0.7,2.5
	c0.1,0.9,0.6,1.8,1.5,2.5C48.6,75.1,49.5,75.4,50.5,75.4z"/>
<path d="M58.4,69.5l-7-7.1l3.7-3.7c0.6-0.6,1.3-0.9,2-0.9c0.7,0,1.4,0.3,2,0.9c0.4,0.4,0.7,1,0.7,1.6c0,0.3,0,0.5-0.1,0.8l0.1,0.1
	c0.2-0.1,0.5-0.2,0.8-0.2c0.7,0,1.2,0.2,1.7,0.7c0.6,0.6,0.9,1.3,0.9,2c0,0.8-0.3,1.4-0.9,2L58.4,69.5z M58.6,67.5l2.6-2.6
	c0.3-0.3,0.4-0.6,0.5-1c0-0.4-0.2-0.8-0.5-1.1c-0.3-0.3-0.7-0.5-1.1-0.5c-0.4,0-0.8,0.1-1.1,0.4l-2.6,2.6L58.6,67.5z M55.5,64.4
	l2.5-2.5c0.3-0.3,0.4-0.6,0.5-1c0-0.4-0.1-0.8-0.4-1.1c-0.3-0.3-0.7-0.5-1.1-0.5c-0.4,0-0.8,0.2-1,0.4l-2.5,2.5L55.5,64.4z"/>
<path d="M70.2,58.6l-5.9-8.1l1.2-0.9l4.8,6.6l0.3-0.2l-1.8-8.9l2.1-1.5l5.9,8.1l-1.2,0.9L70.9,48l-0.3,0.2l1.8,8.9L70.2,58.6z"/>
<path d="M83.8,45.6l1.3-0.8c0.3,1.1,0.3,2.1,0,3c-0.4,0.9-1,1.7-2,2.2c-1.2,0.7-2.4,0.9-3.7,0.5c-1.3-0.4-2.3-1.2-3.1-2.6
	c-0.8-1.3-1-2.6-0.7-3.9c0.3-1.3,1-2.3,2.2-3c1-0.6,1.9-0.8,2.9-0.6c1,0.1,1.8,0.6,2.6,1.4l-1.3,0.8c-0.5-0.5-1-0.7-1.7-0.7
	c-0.6,0-1.2,0.1-1.9,0.5c-0.8,0.5-1.3,1.2-1.5,2.1c-0.2,0.9,0,1.9,0.6,2.8c0.6,1,1.3,1.6,2.2,1.9c0.9,0.3,1.8,0.2,2.6-0.3
	C83.7,48.1,84.2,47.1,83.8,45.6z"/>
<path d="M94.3,40.5l1.4-0.6c0.2,1.1,0.1,2.1-0.4,3c-0.5,0.9-1.2,1.5-2.2,2c-1.3,0.6-2.5,0.6-3.7,0.1c-1.2-0.5-2.2-1.5-2.8-2.9
	c-0.6-1.4-0.7-2.7-0.3-4c0.4-1.3,1.3-2.2,2.5-2.8c1-0.5,2-0.6,3-0.3c1,0.2,1.8,0.8,2.4,1.6l-1.4,0.6c-0.4-0.5-1-0.8-1.6-0.9
	c-0.6-0.1-1.2,0-1.9,0.3c-0.8,0.4-1.4,1-1.7,1.9c-0.3,0.9-0.2,1.9,0.3,2.9c0.5,1,1.1,1.7,2,2.1c0.9,0.4,1.7,0.4,2.6,0
	C93.9,43,94.5,42,94.3,40.5z"/>
<path d="M98.5,42.3L98,40.9l0.6-0.2c0.8-0.3,1-0.8,0.8-1.7l-1.7-7l6.4-2.1l3.2,9.5l-1.4,0.5l-2.7-8.2l-3.6,1.2l1.4,5.7
	c0.4,1.9-0.1,3.1-1.7,3.6L98.5,42.3z"/>
<path d="M115.9,34.3l1.6-0.4c-0.1,1-0.5,1.9-1.1,2.5c-0.6,0.7-1.4,1.1-2.4,1.3c-1.3,0.3-2.6,0.1-3.7-0.6c-1.1-0.7-1.8-1.9-2.2-3.4
	c-0.3-1.5-0.2-2.8,0.5-3.9c0.7-1.2,1.7-1.9,3-2.2c1.3-0.3,2.5-0.1,3.5,0.6c1.1,0.7,1.7,1.7,2,3.1c0,0.2,0.1,0.5,0.1,0.9l0,0.2
	l-7.6,1.7c0.3,0.9,0.8,1.5,1.6,2c0.7,0.4,1.5,0.5,2.3,0.3c0.6-0.1,1.1-0.4,1.5-0.8C115.5,35.3,115.8,34.8,115.9,34.3z M109.4,32.7
	l6.2-1.4c-0.3-0.9-0.7-1.5-1.4-2c-0.7-0.4-1.4-0.6-2.3-0.4c-0.9,0.2-1.5,0.6-2,1.3C109.5,31,109.3,31.8,109.4,32.7z"/>
<path d="M120.2,38.6l-0.4-3.8l0.2,0c0.5-0.1,0.8-0.2,1-0.4c0.2-0.2,0.3-0.6,0.3-1.1l-0.2-7.2l6.7-0.8l1,8.5l1.4-0.2l0.4,3.8
	l-1.5,0.2l-0.3-2.4l-7.2,0.9l0.3,2.4L120.2,38.6z M122.3,34.5l4.8-0.6l-0.8-7.2l-3.8,0.4l0.2,5.8c0,0.5,0,0.9-0.1,1.1
	C122.4,34.3,122.4,34.4,122.3,34.5z"/>
<path d="M140,33.5c-0.9,1-2,1.5-3.4,1.5c-1.4,0-2.5-0.4-3.5-1.4c-0.9-1-1.4-2.2-1.4-3.7c0-1.5,0.4-2.8,1.3-3.8c0.9-1,2-1.5,3.4-1.5
	c1.4,0,2.5,0.5,3.4,1.4c0.9,0.9,1.4,2.2,1.4,3.7C141.4,31.2,141,32.5,140,33.5z M134.3,32.5c0.6,0.7,1.4,1,2.4,1
	c0.9,0,1.7-0.4,2.3-1.1c0.6-0.7,0.9-1.6,0.9-2.8c0-1.1-0.3-2-1-2.7c-0.6-0.7-1.4-1-2.4-1c-0.9,0-1.7,0.4-2.3,1.1
	c-0.6,0.7-0.9,1.6-0.9,2.8C133.3,30.9,133.6,31.8,134.3,32.5z"/>
<path d="M143.3,34.7l0.8-10l5.2,0.4c0.9,0.1,1.5,0.4,2,0.9c0.5,0.5,0.7,1.2,0.6,2.1c-0.1,0.6-0.3,1.1-0.7,1.6
	c-0.2,0.2-0.4,0.3-0.6,0.4l0,0.1c0.2,0.1,0.4,0.3,0.7,0.5c0.4,0.5,0.6,1.1,0.6,1.8c-0.1,0.8-0.4,1.5-1,2c-0.6,0.5-1.3,0.7-2.1,0.6
	L143.3,34.7z M144.9,33.6l3.7,0.3c0.4,0,0.8-0.1,1.1-0.3c0.3-0.3,0.5-0.6,0.5-1.1c0-0.5-0.1-0.8-0.3-1.2c-0.3-0.3-0.6-0.5-1-0.5
	l-3.7-0.3L144.9,33.6z M145.3,29.2l3.5,0.3c0.4,0,0.8-0.1,1.1-0.3c0.3-0.3,0.5-0.6,0.5-1c0-0.4-0.1-0.8-0.4-1.1
	c-0.3-0.3-0.6-0.5-1-0.5l-3.5-0.3L145.3,29.2z"/>
<path d="M160.8,37l0-1.2l-0.1,0c-0.2,0.2-0.5,0.4-0.8,0.6c-0.7,0.3-1.5,0.4-2.5,0.3c-1-0.2-1.8-0.6-2.3-1.3
	c-0.5-0.7-0.7-1.5-0.5-2.4c0.2-1,0.6-1.7,1.4-2.1c0.8-0.4,1.8-0.5,3.1-0.3l2.7,0.5l0.1-0.3c0.1-0.7,0-1.4-0.3-1.8
	c-0.3-0.5-0.9-0.8-1.6-1c-0.7-0.1-1.3-0.1-1.8,0.2c-0.5,0.2-0.8,0.6-0.9,1l-1.5-0.3c0.2-0.8,0.7-1.5,1.5-1.9c0.8-0.5,1.8-0.6,3-0.4
	c1.2,0.2,2.1,0.7,2.6,1.5c0.6,0.8,0.7,1.8,0.5,2.9l-1.2,6.3L160.8,37z M161.4,32.7l0.1-0.4l-2.7-0.5c-0.8-0.2-1.5-0.1-2,0.1
	c-0.5,0.3-0.7,0.6-0.8,1.2c-0.1,0.5,0,0.9,0.3,1.3c0.3,0.4,0.7,0.6,1.4,0.7c1,0.2,1.8,0.1,2.5-0.4C160.8,34.3,161.2,33.6,161.4,32.7
	z"/>
<path d="M165.5,37.9l2.8-9.6l1.4,0.4l-1.2,4.1l5.1,1.5l1.2-4.1l1.4,0.4l-2.8,9.6l-1.4-0.4l1.2-4.1l-5.1-1.5l-1.2,4.1L165.5,37.9z"/>
<path d="M176.3,41.2l3.8-9.3l1.4,0.6l-3.1,7.6l0.4,0.2l6.6-6.1l2.4,1l-3.8,9.3l-1.4-0.6l3.1-7.6l-0.4-0.2l-6.6,6.1L176.3,41.2z"/>
<path d="M186.7,45.6l4.7-8.8l1.3,0.7l-3.9,7.2l0.4,0.2l7.2-5.4l2.3,1.2l-4.7,8.8l-1.3-0.7l3.9-7.2l-0.4-0.2l-7.2,5.4L186.7,45.6z
	 M194.6,33.7l1.1,0.6c-0.2,0.4-0.2,0.8-0.1,1.1c0.1,0.3,0.4,0.6,0.7,0.8c0.4,0.2,0.7,0.3,1.1,0.2c0.4-0.1,0.7-0.3,0.9-0.7l1.1,0.6
	c-0.4,0.6-0.9,1-1.6,1.2c-0.7,0.2-1.3,0-2-0.3c-0.7-0.4-1.1-0.9-1.4-1.5C194.3,35.1,194.3,34.4,194.6,33.7z"/>
<g>
	<path d="M28.2,148.3c-0.4,0.7-0.9,1.2-1.6,1.6c-0.6,0.4-1.3,0.5-2.1,0.5c-0.8,0-1.6-0.3-2.2-0.8c-0.6-0.5-1-1-1.2-1.6l-0.1,0
		c-0.3,0.5-0.7,0.9-1.2,1.3c-0.6,0.4-1.2,0.6-1.9,0.5c-0.7,0-1.4-0.2-2-0.6s-1.1-0.9-1.4-1.6c-0.3-0.7-0.5-1.5-0.4-2.3
		c0-0.8,0.2-1.6,0.6-2.2c0.4-0.7,0.9-1.2,1.5-1.5s1.3-0.5,2.1-0.5c0.7,0,1.4,0.3,1.9,0.7c0.5,0.4,0.9,0.9,1.1,1.4l0.1,0
		c0.3-0.6,0.7-1.1,1.3-1.5c0.6-0.4,1.4-0.6,2.2-0.6c0.7,0,1.4,0.3,2,0.7c0.6,0.4,1.1,1,1.5,1.7c0.4,0.7,0.5,1.6,0.5,2.5
		C28.9,146.8,28.6,147.6,28.2,148.3z M20,143.5c-0.5-0.5-1-0.8-1.7-0.8s-1.3,0.2-1.8,0.7c-0.5,0.5-0.8,1.1-0.8,2
		c0,0.8,0.2,1.5,0.6,2.1c0.5,0.5,1,0.8,1.7,0.8c0.7,0,1.3-0.2,1.8-0.7c0.5-0.5,0.8-1.1,0.8-2C20.6,144.7,20.4,144,20,143.5z
		 M26.7,143.6c-0.5-0.6-1.1-0.9-1.9-1c-0.8,0-1.4,0.2-1.9,0.8c-0.5,0.6-0.8,1.3-0.8,2.2c0,0.9,0.2,1.6,0.7,2.2
		c0.5,0.6,1.1,0.9,1.9,1c0.8,0,1.4-0.2,1.9-0.8c0.5-0.6,0.8-1.3,0.8-2.2C27.4,145,27.2,144.2,26.7,143.6z"/>
</g>
</svg>
