<svg width="16" height="17" viewBox="0 0 16 17" fill="none" xmlns="http://www.w3.org/2000/svg">
<g clip-path="url(#clip0_23_108)">
<path d="M8.00718 16.0863C10.1505 16.0863 12.1613 15.2518 13.6733 13.7339L12.8353 12.8926C11.548 14.185 9.83374 14.8954 8.00943 14.8954C6.18288 14.8954 4.4709 14.1827 3.18355 12.8926C1.89845 11.6003 1.1885 9.87943 1.1885 8.04803C1.1885 6.21664 1.8962 4.49577 3.18355 3.20117C4.4709 1.91107 6.18288 1.20062 8.00718 1.20062C9.83149 1.20062 11.5457 1.91107 12.8331 3.20342C14.399 4.77544 14.9494 6.33844 14.7899 8.77879C14.7315 9.7035 13.9294 10.4523 13.0038 10.4523C12.2287 10.4523 11.5794 9.90423 11.4176 9.17348V4.21835H10.2314V5.4047C9.60008 4.83408 8.7733 4.47547 7.8589 4.47547C5.89755 4.47547 4.29791 6.07906 4.29791 8.05029C4.29791 10.0215 5.8953 11.6251 7.8589 11.6251C8.97326 11.6251 9.95955 11.0973 10.6111 10.2877C11.1054 11.0996 11.9883 11.6454 13.0038 11.6454C14.5697 11.6454 15.8728 10.4207 15.9717 8.85773C16.1514 6.06553 15.4864 4.18452 13.6688 2.36215C12.1591 0.846522 10.1483 0.00976562 8.00494 0.00976562C5.86385 0.00976562 3.85306 0.844266 2.34329 2.3599C0.831273 3.87779 0 5.89638 0 8.04803C0 10.1974 0.83352 12.216 2.34329 13.7339C3.85306 15.2495 5.86609 16.0863 8.00718 16.0863ZM7.8589 10.432C6.54908 10.432 5.48416 9.36294 5.48416 8.04803C5.48416 6.73313 6.54908 5.66407 7.8589 5.66407C9.16647 5.66407 10.2314 6.73313 10.2314 8.04803C10.2314 9.36294 9.16647 10.432 7.8589 10.432Z" fill="white"/>
</g>
<defs>
<clipPath id="clip0_23_108">
<rect width="16" height="17" fill="white"/>
</clipPath>
</defs>
</svg>
