<svg width="52" height="53" viewBox="0 0 52 53" fill="none" xmlns="http://www.w3.org/2000/svg">
<g clip-path="url(#clip0_16_79)">
<path d="M12.8945 48.7836C11.9173 48.7857 10.9499 48.5807 10.0502 48.1808C9.15043 47.7808 8.33698 47.1943 7.65862 46.4563L6.30793 45.0039C4.96743 43.5445 4.2324 41.5874 4.26365 39.5607C4.2949 37.534 5.0899 35.6028 6.47469 34.1898L31.9869 8.23938L43.4757 20.6808L17.9636 46.6312C16.6042 48.012 14.7863 48.7839 12.8945 48.7836ZM31.9535 10.7241L7.64193 35.4497C6.57218 36.5395 5.95749 38.0297 5.93249 39.5941C5.90749 41.1585 6.47418 42.6696 7.50851 43.7965L8.84251 45.2314C9.88103 46.354 11.3011 46.999 12.7919 47.0252C14.2826 47.0515 15.7225 46.4568 16.7963 45.3713L41.1079 20.6458L31.9535 10.7241Z" fill="#253746"/>
<path d="M46.0697 24.9852C45.846 24.9846 45.6316 24.8908 45.4737 24.7244L28.3224 6.13638C28.1894 5.96714 28.1223 5.75134 28.1345 5.53229C28.1467 5.31325 28.2373 5.10715 28.3881 4.95534C28.5389 4.80352 28.7388 4.71721 28.9477 4.71373C29.1566 4.71026 29.359 4.78987 29.5144 4.93659L46.6657 23.5246C46.7746 23.6479 46.8471 23.8018 46.8745 23.9675C46.9018 24.1333 46.8828 24.3038 46.8197 24.4584C46.7566 24.613 46.6522 24.745 46.519 24.8386C46.3859 24.9321 46.2299 24.983 46.0697 24.9852Z" fill="#253746"/>
<path d="M27.231 22.3407C26.9881 22.3334 26.7578 22.23 26.5896 22.0527L23.2757 18.5967C23.1114 18.4255 23.0195 18.1963 23.0195 17.9578C23.0195 17.7192 23.1114 17.49 23.2757 17.3188C23.3586 17.2344 23.4571 17.1674 23.5657 17.1217C23.6742 17.0761 23.7907 17.0525 23.9083 17.0525C24.0259 17.0525 24.1423 17.0761 24.2509 17.1217C24.3594 17.1674 24.4579 17.2344 24.5407 17.3188L27.8724 20.7927C27.9554 20.8749 28.0213 20.9729 28.0663 21.081C28.1113 21.1892 28.1345 21.3054 28.1345 21.4227C28.1345 21.5401 28.1113 21.6562 28.0663 21.7644C28.0213 21.8726 27.9554 21.9706 27.8724 22.0527C27.7904 22.1421 27.6912 22.2137 27.581 22.2632C27.4707 22.3127 27.3517 22.3391 27.231 22.3407Z" fill="#253746"/>
<path d="M16.1564 32.9186C16.0356 32.9191 15.9161 32.8937 15.8058 32.8439C15.6954 32.7941 15.5967 32.7211 15.5162 32.6298L12.7908 29.7852C12.6258 29.6129 12.5349 29.3811 12.5382 29.1407C12.5415 28.9004 12.6388 28.6713 12.8086 28.5038C12.9784 28.3363 13.2068 28.244 13.4435 28.2474C13.6803 28.2508 13.906 28.3495 14.0711 28.5218L16.7965 31.3845C16.9605 31.5562 17.0523 31.786 17.0523 32.0252C17.0523 32.2644 16.9605 32.4942 16.7965 32.6659C16.6211 32.8273 16.3932 32.9173 16.1564 32.9186Z" fill="#253746"/>
<path d="M23.8642 31.1534C23.6365 31.1528 23.4183 31.0508 23.2575 30.8698L17.8592 24.5296C17.7238 24.3456 17.6555 24.1109 17.6679 23.8726C17.6803 23.6344 17.7725 23.4102 17.9261 23.2451C18.0796 23.08 18.2831 22.9861 18.4958 22.9823C18.7084 22.9785 18.9144 23.0651 19.0726 23.2247L24.4709 29.5459C24.5499 29.6338 24.6126 29.7384 24.6554 29.8536C24.6981 29.9688 24.7202 30.0924 24.7202 30.2173C24.7202 30.3421 24.6981 30.4657 24.6554 30.5809C24.6126 30.6962 24.5499 30.8007 24.4709 30.8887C24.3923 30.9785 24.2975 31.0486 24.1929 31.0942C24.0884 31.1399 23.9763 31.16 23.8642 31.1534Z" fill="#253746"/>
<path d="M0.896938 52.3065C0.778926 52.3093 0.661497 52.2902 0.551473 52.2504C0.441449 52.2105 0.341001 52.1507 0.256043 52.0744C0.091822 51.9167 0 51.7056 0 51.486C0 51.2663 0.091822 51.0552 0.256043 50.8975L7.02078 44.6153C7.18603 44.4614 7.41011 44.375 7.6438 44.375C7.8775 44.375 8.10163 44.4614 8.26688 44.6153C8.43213 44.7692 8.52499 44.9778 8.52499 45.1954C8.52499 45.413 8.43213 45.6217 8.26688 45.7756L1.51996 52.0744C1.4377 52.1495 1.34032 52.2086 1.23339 52.2485C1.12645 52.2883 1.0121 52.308 0.896938 52.3065Z" fill="#253746"/>
<path d="M37.4827 16.171C37.3727 16.1738 37.2633 16.1507 37.1627 16.1033C37.0621 16.0559 36.9727 15.9854 36.9009 15.8969C36.8236 15.82 36.762 15.7272 36.7199 15.6241C36.6778 15.521 36.656 15.4098 36.656 15.2974C36.656 15.1851 36.6778 15.0739 36.7199 14.9708C36.762 14.8677 36.8236 14.7748 36.9009 14.6979L45.5636 5.79118C45.7209 5.65362 45.9215 5.58418 46.1251 5.5968C46.3287 5.60941 46.5202 5.70314 46.6613 5.85919C46.8025 6.01524 46.8827 6.22207 46.8859 6.43819C46.8891 6.6543 46.8151 6.86372 46.6788 7.02443L38.016 15.9312C37.8732 16.0796 37.6827 16.1653 37.4827 16.171Z" fill="#253746"/>
<path d="M51.228 10.8825C51.0051 10.882 50.7915 10.7923 50.6341 10.6332L42.0052 1.72311C41.8521 1.56439 41.7677 1.35088 41.7708 1.12954C41.7739 0.908201 41.8642 0.697166 42.0217 0.54286C42.1793 0.388553 42.3911 0.303606 42.6108 0.306723C42.8305 0.309841 43.04 0.400758 43.1931 0.559474L51.756 9.46954C51.8333 9.54681 51.8947 9.63873 51.9366 9.74002C51.9784 9.8413 52 9.94995 52 10.0597C52 10.1694 51.9784 10.278 51.9366 10.3793C51.8947 10.4806 51.8333 10.5725 51.756 10.6498C51.6119 10.7864 51.4254 10.8686 51.228 10.8825Z" fill="#253746"/>
</g>
<defs>
<clipPath id="clip0_16_79">
<rect width="52" height="53" fill="white"/>
</clipPath>
</defs>
</svg>
