<svg width="52" height="53" viewBox="0 0 52 53" fill="none" xmlns="http://www.w3.org/2000/svg">
<path d="M18.9585 26.6815C20.4544 26.6815 21.667 25.4681 21.667 23.9712C21.667 22.4744 20.4544 21.261 18.9585 21.261C17.4626 21.261 16.25 22.4744 16.25 23.9712C16.25 25.4681 17.4626 26.6815 18.9585 26.6815Z" fill="#253746"/>
<path d="M33.0449 26.6815C34.5408 26.6815 35.7536 25.4681 35.7536 23.9712C35.7536 22.4744 34.5408 21.261 33.0449 21.261C31.5489 21.261 30.3362 22.4744 30.3362 23.9712C30.3362 25.4681 31.5489 26.6815 33.0449 26.6815Z" fill="#253746"/>
<path d="M26.0007 49.4429C25.7132 49.4429 25.4374 49.3332 25.2341 49.1381C25.0309 48.9429 24.9167 48.6782 24.9167 48.4022V37.4753C24.9167 37.1993 25.0309 36.9346 25.2341 36.7395C25.4374 36.5443 25.7132 36.4347 26.0007 36.4347C26.2864 36.44 26.559 36.5514 26.7611 36.7454C26.9632 36.9394 27.0791 37.201 27.0847 37.4753V48.4022C27.0791 48.6766 26.9632 48.9382 26.7611 49.1322C26.559 49.3262 26.2864 49.4376 26.0007 49.4429Z" fill="#253746"/>
<path d="M26.0346 38.4912C25.6327 38.4803 25.2386 38.3699 24.8834 38.1688C24.5282 37.9678 24.2215 37.6814 23.9873 37.3324L21.0803 33.2216C20.7984 32.8126 20.6297 32.3272 20.5935 31.8208C20.5573 31.3144 20.655 30.8073 20.8755 30.3573C21.0921 29.9013 21.4232 29.5187 21.8317 29.2522C22.2403 28.9858 22.7102 28.846 23.1889 28.8485H28.8802C29.3524 28.8564 29.8134 29.0026 30.2132 29.2711C30.6129 29.5396 30.936 29.9201 31.1472 30.3711C31.3583 30.8222 31.4494 31.3266 31.4107 31.8292C31.372 32.3319 31.2049 32.8135 30.9275 33.2216L28.0818 37.4417C27.8488 37.792 27.5423 38.0792 27.1869 38.2804C26.8314 38.4817 26.4368 38.5913 26.0346 38.6006V38.4912ZM23.1889 31.0351C23.0866 31.0286 22.9847 31.0538 22.8954 31.1077C22.8062 31.1616 22.7334 31.2418 22.6858 31.3388C22.6383 31.4358 22.6179 31.5454 22.6273 31.6544C22.6366 31.7635 22.6753 31.8673 22.7385 31.9534L25.5842 36.1735C25.8708 36.5889 26.1779 36.5889 26.4645 36.1735L29.3102 31.9534C29.3649 31.862 29.3939 31.7558 29.3939 31.6473C29.3939 31.5388 29.3649 31.4326 29.3102 31.3412C29.2654 31.2491 29.1978 31.1719 29.1147 31.118C29.0317 31.064 28.9365 31.0354 28.8393 31.0351H23.1889Z" fill="#253746"/>
<path d="M26.0537 49.4428H25.7104H25.4529C11.5471 48.5816 5.19509 40.6844 2.34097 34.2154C0.751717 30.4913 -0.0442154 26.489 0.00189474 22.4535V2.89938C0.00360652 2.71092 0.0560949 2.52622 0.154059 2.36396C0.252023 2.2017 0.391983 2.06761 0.55983 1.97523C0.730799 1.88331 0.922698 1.83511 1.11777 1.83511C1.31283 1.83511 1.50477 1.88331 1.67573 1.97523L14.5514 10.3766C17.693 7.11955 22.0036 5.18323 26.5751 4.97558C31.1466 4.76793 35.6219 6.30516 39.0582 9.26339L50.3245 1.89123C50.4954 1.79931 50.6873 1.7511 50.8824 1.7511C51.0775 1.7511 51.2694 1.79931 51.4404 1.89123C51.6082 1.98361 51.7482 2.1177 51.8461 2.27996C51.9441 2.44222 51.9966 2.6269 51.9983 2.81537V22.3695C52.0419 26.4116 51.2461 30.4203 49.6592 34.1523C46.8051 40.6004 40.4745 48.4556 26.4615 49.3798H26.2683H26.0537V49.4428ZM2.14785 4.83168V22.4115C2.09437 26.164 2.82461 29.8877 4.2938 33.3542C6.91186 39.2771 12.7488 46.5023 25.7533 47.3214H26.3971C39.2728 46.5233 45.1742 39.2771 47.8566 33.3542C49.3258 29.8877 50.0561 26.164 50.0026 22.4115V4.83168L39.702 11.5738C39.4964 11.7086 39.2495 11.7697 39.0031 11.7467C38.7567 11.7238 38.526 11.6181 38.35 11.4477C36.8239 9.99999 35.0101 8.87456 33.0212 8.14126C31.0323 7.40795 28.9107 7.08241 26.788 7.18482C24.6652 7.28722 22.5866 7.81539 20.681 8.73657C18.7754 9.65775 17.0835 10.9523 15.7102 12.5399C15.5421 12.7395 15.3045 12.8714 15.0431 12.9101C14.7818 12.9489 14.515 12.8919 14.2939 12.7499L2.14785 4.83168Z" fill="#253746"/>
</svg>
