<svg width="52" height="53" viewBox="0 0 52 53" fill="none" xmlns="http://www.w3.org/2000/svg">
<g clip-path="url(#clip0_16_62)">
<mask id="mask0_16_62" style="mask-type:luminance" maskUnits="userSpaceOnUse" x="0" y="0" width="52" height="53">
<path d="M52 0.306641H0V52.3066H52V0.306641Z" fill="white"/>
</mask>
<g mask="url(#mask0_16_62)">
<path d="M40.4196 52.3067H11.5785C10.3962 52.302 9.26371 51.8387 8.4277 51.0177C7.59169 50.1967 7.11995 49.0845 7.11523 47.9234V8.24573H44.8829V47.9234C44.8829 49.0859 44.4126 50.2008 43.5756 51.0228C42.7386 51.8448 41.6033 52.3067 40.4196 52.3067ZM8.87189 10.0589V47.9939C8.87662 48.6958 9.16389 49.3673 9.67098 49.862C10.178 50.3567 10.8638 50.6344 11.5785 50.6344H40.4196C41.1344 50.6344 41.8201 50.3567 42.3272 49.862C42.8343 49.3673 43.1215 48.6958 43.1262 47.9939V9.98845L8.87189 10.0589Z" fill="#253746"/>
<path d="M52.0026 9.98843H0.0205078V0.306641H52.0026V9.98843ZM1.81299 8.2281H50.246V2.01416H1.75922L1.81299 8.2281Z" fill="#253746"/>
<path d="M18.3371 42.5192H8.06617C7.82847 42.5192 7.60052 42.4265 7.43244 42.2614C7.26436 42.0964 7.16992 41.8725 7.16992 41.6391C7.16992 41.4056 7.26436 41.1818 7.43244 41.0167C7.60052 40.8516 7.82847 40.7589 8.06617 40.7589H18.3371C18.5748 40.7589 18.8028 40.8516 18.9708 41.0167C19.1389 41.1818 19.2334 41.4056 19.2334 41.6391C19.2334 41.8725 19.1389 42.0964 18.9708 42.2614C18.8028 42.4265 18.5748 42.5192 18.3371 42.5192Z" fill="#253746"/>
<path d="M23.7142 34.5977H7.94043C7.70273 34.5977 7.47473 34.505 7.30665 34.3399C7.13857 34.1749 7.04419 33.951 7.04419 33.7176C7.04419 33.4841 7.13857 33.2602 7.30665 33.0952C7.47473 32.9301 7.70273 32.8374 7.94043 32.8374H23.7142C23.9519 32.8374 24.1799 32.9301 24.348 33.0952C24.516 33.2602 24.6105 33.4841 24.6105 33.7176C24.6105 33.951 24.516 34.1749 24.348 34.3399C24.1799 34.505 23.9519 34.5977 23.7142 34.5977Z" fill="#253746"/>
<path d="M18.3371 26.6763H8.06617C7.82847 26.6763 7.60052 26.5836 7.43244 26.4185C7.26436 26.2535 7.16992 26.0296 7.16992 25.7962C7.16992 25.5627 7.26436 25.3389 7.43244 25.1738C7.60052 25.0087 7.82847 24.916 8.06617 24.916H18.3371C18.5748 24.916 18.8028 25.0087 18.9708 25.1738C19.1389 25.3389 19.2334 25.5627 19.2334 25.7962C19.2334 26.0296 19.1389 26.2535 18.9708 26.4185C18.8028 26.5836 18.5748 26.6763 18.3371 26.6763Z" fill="#253746"/>
<path d="M23.7142 18.7373H7.94043C7.70273 18.7373 7.47473 18.6445 7.30665 18.4795C7.13857 18.3144 7.04419 18.0905 7.04419 17.8571C7.04419 17.6237 7.13857 17.3998 7.30665 17.2347C7.47473 17.0697 7.70273 16.9769 7.94043 16.9769H23.7142C23.9519 16.9769 24.1799 17.0697 24.348 17.2347C24.516 17.3998 24.6105 17.6237 24.6105 17.8571C24.6105 18.0905 24.516 18.3144 24.348 18.4795C24.1799 18.6445 23.9519 18.7373 23.7142 18.7373Z" fill="#253746"/>
</g>
</g>
<defs>
<clipPath id="clip0_16_62">
<rect width="52" height="53" fill="white"/>
</clipPath>
</defs>
</svg>
