<svg width="52" height="52" viewBox="0 0 52 52" fill="none" xmlns="http://www.w3.org/2000/svg">
<path d="M25.4092 11.2273C23.542 11.2273 21.8638 17.4909 21.8638 18.9091C21.8638 19.8494 22.2373 20.7512 22.9022 21.4161C23.5671 22.081 24.4689 22.4546 25.4092 22.4546C26.3495 22.4546 27.2513 22.081 27.9162 21.4161C28.5811 20.7512 28.9547 19.8494 28.9547 18.9091C28.9547 17.4909 27.2765 11.2273 25.4092 11.2273ZM25.4092 21.2728C24.7823 21.2728 24.1811 21.0237 23.7379 20.5805C23.2946 20.1372 23.0456 19.536 23.0456 18.9091C23.0456 17.1955 24.712 12.7046 25.4092 12.3973C26.1538 12.7046 27.7729 17.1955 27.7729 18.9091C27.7729 19.536 27.5238 20.1372 27.0806 20.5805C26.6373 21.0237 26.0361 21.2728 25.4092 21.2728Z" fill="#253746"/>
<path d="M37.7237 37.8182H27.69C27.5553 37.8182 27.426 37.7646 27.3307 37.6693C27.2354 37.574 27.1819 37.4448 27.1819 37.31V35.4545H27.7728C27.9295 35.4545 28.0798 35.3923 28.1906 35.2815C28.3014 35.1707 28.3637 35.0204 28.3637 34.8636V31.9091H28.4464C30.931 31.906 33.313 30.9176 35.0698 29.1607C36.8267 27.4038 37.8151 25.0219 37.8182 22.5373V7.00818C37.8182 6.39825 37.6981 5.79429 37.4647 5.23079C37.2313 4.66729 36.8892 4.15528 36.4579 3.72399C36.0266 3.29271 35.5146 2.95059 34.9511 2.71718C34.3876 2.48377 33.7836 2.36364 33.1737 2.36364H28.3637C28.2399 1.70113 27.8889 1.10256 27.3711 0.671088C26.8533 0.23962 26.2013 0.00228919 25.5273 0H25.3855C24.7123 0.00045772 24.0607 0.237387 23.5444 0.669407C23.0282 1.10143 22.6801 1.70108 22.561 2.36364H17.6564C16.4272 2.38194 15.2534 2.8784 14.3841 3.7477C13.5148 4.617 13.0183 5.79076 13 7.02V22.5373C13.0032 25.0219 13.9916 27.4038 15.7484 29.1607C17.5053 30.9176 19.8873 31.906 22.3719 31.9091H22.4546V34.8636C22.4546 35.0204 22.5168 35.1707 22.6277 35.2815C22.7385 35.3923 22.8888 35.4545 23.0455 35.4545H23.6364V38.1255C23.6364 38.9843 23.9776 39.8079 24.5848 40.4152C25.1921 41.0225 26.0158 41.3636 26.8746 41.3636H37.2273C37.6975 41.3636 38.1484 41.5504 38.4808 41.8829C38.8133 42.2153 39 42.6662 39 43.1364C39 43.6065 38.8133 44.0574 38.4808 44.3899C38.1484 44.7223 37.6975 44.9091 37.2273 44.9091H14.4064C13.0941 44.9122 11.8364 45.4349 10.9084 46.3629C9.98042 47.2909 9.45771 48.5486 9.45459 49.8609V51.4091C9.45459 51.5658 9.51685 51.7161 9.62766 51.8269C9.73848 51.9377 9.88878 52 10.0455 52C10.2022 52 10.3525 51.9377 10.4633 51.8269C10.5742 51.7161 10.6364 51.5658 10.6364 51.4091V49.8609C10.6364 48.861 11.0336 47.9021 11.7406 47.1951C12.4476 46.4881 13.4065 46.0909 14.4064 46.0909H37.2273C38.0109 46.0909 38.7624 45.7796 39.3165 45.2255C39.8706 44.6715 40.1819 43.92 40.1819 43.1364C40.1819 42.3528 39.8706 41.6013 39.3165 41.0472C38.7624 40.4931 38.0109 40.1818 37.2273 40.1818H26.8746C26.6045 40.1818 26.3371 40.1286 26.0877 40.0253C25.8382 39.9219 25.6115 39.7705 25.4205 39.5795C25.2296 39.3886 25.0781 39.1619 24.9748 38.9124C24.8714 38.6629 24.8182 38.3955 24.8182 38.1255V35.4545H26V37.31C26 37.7582 26.1781 38.1881 26.495 38.505C26.812 38.8219 27.2418 39 27.69 39H37.7237C38.6891 39 39.6149 39.3835 40.2976 40.0661C40.9802 40.7488 41.3637 41.6746 41.3637 42.64V43.6327C41.3637 44.5981 40.9802 45.524 40.2976 46.2066C39.6149 46.8892 38.6891 47.2727 37.7237 47.2727H15.0919C14.2236 47.2727 13.391 47.6176 12.7771 48.2316C12.1631 48.8455 11.8182 49.6781 11.8182 50.5464V51.4091C11.8182 51.5658 11.8805 51.7161 11.9913 51.8269C12.1021 51.9377 12.2524 52 12.4091 52C12.5659 52 12.7162 51.9377 12.827 51.8269C12.9378 51.7161 13 51.5658 13 51.4091V50.5464C13 50.2717 13.0542 49.9996 13.1593 49.7459C13.2644 49.4921 13.4185 49.2615 13.6127 49.0672C13.807 48.873 14.0376 48.7189 14.2914 48.6138C14.5451 48.5087 14.8172 48.4545 15.0919 48.4545H37.7237C39.0025 48.4545 40.229 47.9465 41.1332 47.0423C42.0375 46.138 42.5455 44.9115 42.5455 43.6327V42.64C42.5455 41.3612 42.0375 40.1347 41.1332 39.2305C40.229 38.3262 39.0025 37.8182 37.7237 37.8182ZM25.3382 1.18182H25.48C25.8403 1.1821 26.1911 1.29668 26.4821 1.50905C26.773 1.72143 26.9891 2.02065 27.0991 2.36364H23.7191C23.8292 2.02065 24.0453 1.72143 24.3362 1.50905C24.6272 1.29668 24.978 1.1821 25.3382 1.18182ZM14.1819 7.02C14.1819 6.09849 14.5479 5.21473 15.1995 4.56312C15.8511 3.91152 16.7349 3.54545 17.6564 3.54545H33.1737C34.0921 3.54545 34.9728 3.91028 35.6222 4.55966C36.2716 5.20905 36.6364 6.08981 36.6364 7.00818V14.1818H31.9091V8.86364C31.9091 8.70692 31.8469 8.55662 31.7361 8.4458C31.6252 8.33498 31.4749 8.27273 31.3182 8.27273H19.5C19.3433 8.27273 19.193 8.33498 19.0822 8.4458C18.9714 8.55662 18.9091 8.70692 18.9091 8.86364V14.1818H14.1819V7.02ZM20.091 14.7727V9.45455H30.7273V24.8182H20.091V14.7727ZM14.1819 22.5373V15.3636H18.9091V25.4091C18.9091 25.5658 18.9714 25.7161 19.0822 25.8269C19.193 25.9377 19.3433 26 19.5 26H31.3182C31.4749 26 31.6252 25.9377 31.7361 25.8269C31.8469 25.7161 31.9091 25.5658 31.9091 25.4091V15.3636H36.6364V22.5373C36.6333 24.7084 35.7694 26.7898 34.2342 28.325C32.6989 29.8603 30.6176 30.7241 28.4464 30.7273H22.3719C20.2007 30.7241 18.1194 29.8603 16.5841 28.325C15.0489 26.7898 14.185 24.7084 14.1819 22.5373ZM24.2273 34.2727H23.6364V31.9091H27.1819V34.2727H24.2273Z" fill="#253746"/>
</svg>
