<svg width="52" height="53" viewBox="0 0 52 53" fill="none" xmlns="http://www.w3.org/2000/svg">
<g clip-path="url(#clip0_16_40)">
<path d="M41.4478 44.878H11.3647C10.29 44.878 9.25927 44.4534 8.49935 43.6975C7.73942 42.9416 7.3125 41.9164 7.3125 40.8474V10.9404C7.3125 9.87141 7.73942 8.84622 8.49935 8.09034C9.25927 7.33445 10.29 6.90979 11.3647 6.90979H41.4478C42.5225 6.90979 43.5532 7.33445 44.3131 8.09034C45.0731 8.84622 45.5 9.87141 45.5 10.9404V40.8474C45.5 41.9164 45.0731 42.9416 44.3131 43.6975C43.5532 44.4534 42.5225 44.878 41.4478 44.878ZM11.3647 8.52203C10.7198 8.52203 10.1014 8.77683 9.64547 9.23036C9.18951 9.68389 8.93336 10.299 8.93336 10.9404V40.8474C8.93336 41.4888 9.18951 42.104 9.64547 42.5575C10.1014 43.011 10.7198 43.2658 11.3647 43.2658H41.4478C42.0927 43.2658 42.7111 43.011 43.167 42.5575C43.623 42.104 43.8791 41.4888 43.8791 40.8474V10.9404C43.8791 10.299 43.623 9.68389 43.167 9.23036C42.7111 8.77683 42.0927 8.52203 41.4478 8.52203H11.3647Z" fill="#253746"/>
<path d="M7.34375 16.8146H0.78125C0.57405 16.8146 0.375335 16.7276 0.228822 16.5728C0.0823095 16.4181 0 16.2081 0 15.9892C0 15.7703 0.0823095 15.5604 0.228822 15.4056C0.375335 15.2508 0.57405 15.1638 0.78125 15.1638H7.34375C7.55095 15.1638 7.74966 15.2508 7.89618 15.4056C8.04269 15.5604 8.125 15.7703 8.125 15.9892C8.125 16.2081 8.04269 16.4181 7.89618 16.5728C7.74966 16.7276 7.55095 16.8146 7.34375 16.8146Z" fill="#253746"/>
<path d="M7.34375 25.894H0.78125C0.57405 25.894 0.375335 25.807 0.228822 25.6522C0.0823095 25.4974 0 25.2875 0 25.0686C0.00400012 24.851 0.0875902 24.6435 0.233245 24.4896C0.3789 24.3357 0.575302 24.2474 0.78125 24.2432H7.34375C7.55095 24.2432 7.74966 24.3301 7.89618 24.4849C8.04269 24.6397 8.125 24.8497 8.125 25.0686C8.125 25.2875 8.04269 25.4974 7.89618 25.6522C7.74966 25.807 7.55095 25.894 7.34375 25.894Z" fill="#253746"/>
<path d="M7.34375 34.1479H0.78125C0.57405 34.1479 0.375335 34.0609 0.228822 33.9061C0.0823095 33.7513 0 33.5414 0 33.3225C0 33.1036 0.0823095 32.8936 0.228822 32.7388C0.375335 32.584 0.57405 32.4971 0.78125 32.4971H7.34375C7.55095 32.4971 7.74966 32.584 7.89618 32.7388C8.04269 32.8936 8.125 33.1036 8.125 33.3225C8.125 33.5414 8.04269 33.7513 7.89618 33.9061C7.74966 34.0609 7.55095 34.1479 7.34375 34.1479Z" fill="#253746"/>
<path d="M51.2187 16.8146H44.6563C44.449 16.8146 44.2503 16.7276 44.1038 16.5728C43.9573 16.4181 43.875 16.2081 43.875 15.9892C43.875 15.7703 43.9573 15.5604 44.1038 15.4056C44.2503 15.2508 44.449 15.1638 44.6563 15.1638H51.2187C51.426 15.1638 51.6247 15.2508 51.7712 15.4056C51.9177 15.5604 52 15.7703 52 15.9892C52 16.2081 51.9177 16.4181 51.7712 16.5728C51.6247 16.7276 51.426 16.8146 51.2187 16.8146Z" fill="#253746"/>
<path d="M51.2187 25.894H44.6563C44.449 25.894 44.2503 25.807 44.1038 25.6522C43.9573 25.4974 43.875 25.2875 43.875 25.0686C43.875 24.8497 43.9573 24.6397 44.1038 24.4849C44.2503 24.3301 44.449 24.2432 44.6563 24.2432H51.2187C51.426 24.2432 51.6247 24.3301 51.7712 24.4849C51.9177 24.6397 52 24.8497 52 25.0686C52 25.2875 51.9177 25.4974 51.7712 25.6522C51.6247 25.807 51.426 25.894 51.2187 25.894Z" fill="#253746"/>
<path d="M51.2187 35.7987H44.6563C44.449 35.7987 44.2503 35.7118 44.1038 35.557C43.9573 35.4022 43.875 35.1924 43.875 34.9734C43.875 34.7545 43.9573 34.5446 44.1038 34.3898C44.2503 34.235 44.449 34.1479 44.6563 34.1479H51.2187C51.426 34.1479 51.6247 34.235 51.7712 34.3898C51.9177 34.5446 52 34.7545 52 34.9734C52 35.1924 51.9177 35.4022 51.7712 35.557C51.6247 35.7118 51.426 35.7987 51.2187 35.7987Z" fill="#253746"/>
<path d="M17.0625 7.73521C16.847 7.73521 16.6403 7.6601 16.488 7.5264C16.3356 7.39271 16.25 7.21137 16.25 7.0223V1.01956C16.25 0.830479 16.3356 0.649145 16.488 0.515448C16.6403 0.381751 16.847 0.306641 17.0625 0.306641C17.278 0.306641 17.4847 0.381751 17.637 0.515448C17.7894 0.649145 17.875 0.830479 17.875 1.01956V7.0223C17.875 7.21137 17.7894 7.39271 17.637 7.5264C17.4847 7.6601 17.278 7.73521 17.0625 7.73521Z" fill="#253746"/>
<path d="M26.8125 7.73521C26.5983 7.73156 26.3941 7.65528 26.2426 7.52237C26.0911 7.38945 26.0042 7.21023 26 7.0223V1.01956C26.0042 0.831622 26.0911 0.652409 26.2426 0.519495C26.3941 0.38658 26.5983 0.310291 26.8125 0.306641C27.028 0.306641 27.2347 0.381751 27.387 0.515448C27.5394 0.649145 27.625 0.830479 27.625 1.01956V7.0223C27.625 7.21137 27.5394 7.39271 27.387 7.5264C27.2347 7.6601 27.028 7.73521 26.8125 7.73521Z" fill="#253746"/>
<path d="M35.75 7.73521C35.5345 7.73521 35.3279 7.6601 35.1755 7.5264C35.0231 7.39271 34.9375 7.21137 34.9375 7.0223V1.01956C34.9375 0.830479 35.0231 0.649145 35.1755 0.515448C35.3279 0.381751 35.5345 0.306641 35.75 0.306641C35.9655 0.306641 36.1722 0.381751 36.3245 0.515448C36.4769 0.649145 36.5625 0.830479 36.5625 1.01956V7.0223C36.5625 7.21137 36.4769 7.39271 36.3245 7.5264C36.1722 7.6601 35.9655 7.73521 35.75 7.73521Z" fill="#253746"/>
<path d="M17.0625 52.3066C16.847 52.3066 16.6403 52.223 16.488 52.0741C16.3356 51.9253 16.25 51.7234 16.25 51.5129V44.8463C16.25 44.6358 16.3356 44.4339 16.488 44.2851C16.6403 44.1362 16.847 44.0526 17.0625 44.0526C17.278 44.0526 17.4847 44.1362 17.637 44.2851C17.7894 44.4339 17.875 44.6358 17.875 44.8463V51.5129C17.875 51.7234 17.7894 51.9253 17.637 52.0741C17.4847 52.223 17.278 52.3066 17.0625 52.3066Z" fill="#253746"/>
<path d="M26.8125 52.3066C26.597 52.3066 26.3903 52.223 26.238 52.0741C26.0856 51.9253 26 51.7234 26 51.5129V44.8463C26.0042 44.637 26.0911 44.4375 26.2426 44.2896C26.3941 44.1416 26.5983 44.0567 26.8125 44.0526C27.028 44.0526 27.2347 44.1362 27.387 44.2851C27.5394 44.4339 27.625 44.6358 27.625 44.8463V51.5129C27.625 51.7234 27.5394 51.9253 27.387 52.0741C27.2347 52.223 27.028 52.3066 26.8125 52.3066Z" fill="#253746"/>
<path d="M35.75 52.3066C35.5345 52.3066 35.3279 52.223 35.1755 52.0741C35.0231 51.9253 34.9375 51.7234 34.9375 51.5129V44.8463C34.9375 44.6358 35.0231 44.4339 35.1755 44.2851C35.3279 44.1362 35.5345 44.0526 35.75 44.0526C35.9655 44.0526 36.1722 44.1362 36.3245 44.2851C36.4769 44.4339 36.5625 44.6358 36.5625 44.8463V51.5129C36.5625 51.7234 36.4769 51.9253 36.3245 52.0741C36.1722 52.223 35.9655 52.3066 35.75 52.3066Z" fill="#253746"/>
</g>
<defs>
<clipPath id="clip0_16_40">
<rect width="52" height="53" fill="white"/>
</clipPath>
</defs>
</svg>
