<svg width="52" height="53" viewBox="0 0 52 53" fill="none" xmlns="http://www.w3.org/2000/svg">
<g clip-path="url(#clip0_16_54)">
<path d="M0.774088 7.39949C0.570028 7.39575 0.375449 7.31753 0.23113 7.18125C0.0868108 7.04496 0.00396344 6.86119 0 6.66848V3.23275C0 2.45725 0.326267 1.7135 0.906945 1.16514C1.48762 0.61678 2.27515 0.308716 3.09635 0.308716H6.31658C6.52188 0.308716 6.71876 0.385732 6.86393 0.522823C7.0091 0.659913 7.09067 0.845848 7.09067 1.03972C7.0867 1.23243 7.00386 1.41619 6.85954 1.55248C6.71522 1.68876 6.52064 1.76699 6.31658 1.77073H3.09635C2.68575 1.77073 2.29199 1.92476 2.00165 2.19895C1.71131 2.47313 1.54818 2.845 1.54818 3.23275V6.66848C1.54818 6.86236 1.46666 7.04829 1.32149 7.18538C1.17632 7.32247 0.979388 7.39949 0.774088 7.39949Z" fill="#253746"/>
<path d="M51.1962 7.39403C51.0035 7.39007 50.8197 7.30727 50.6834 7.16302C50.5471 7.01876 50.4689 6.82426 50.4651 6.6203V3.40157C50.4651 2.99116 50.3111 2.59755 50.0369 2.30735C49.7628 2.01714 49.3909 1.8541 49.0031 1.8541H45.6404C45.4465 1.8541 45.2606 1.77259 45.1235 1.62748C44.9864 1.48238 44.9094 1.28558 44.9094 1.08037C44.9094 0.875166 44.9864 0.678364 45.1235 0.533261C45.2606 0.388158 45.4465 0.306641 45.6404 0.306641H49.0762C49.8517 0.306641 50.5955 0.63271 51.1439 1.21312C51.6923 1.79353 52.0003 2.58074 52.0003 3.40157V6.6203C52.0008 6.72876 51.9798 6.83612 51.9386 6.93542C51.8974 7.03471 51.8369 7.12373 51.761 7.19669C51.6852 7.26965 51.5957 7.32492 51.4984 7.35892C51.4011 7.39291 51.2981 7.40488 51.1962 7.39403Z" fill="#253746"/>
<path d="M48.9039 52.3069H45.6835C45.4782 52.3069 45.2813 52.2213 45.1361 52.069C44.9909 51.9167 44.9094 51.7102 44.9094 51.4948C44.9094 51.2794 44.9909 51.0728 45.1361 50.9205C45.2813 50.7682 45.4782 50.6827 45.6835 50.6827H48.9039C49.3145 50.6827 49.7083 50.5115 49.9986 50.2069C50.289 49.9023 50.4521 49.4892 50.4521 49.0584V45.2415C50.4521 45.0261 50.5337 44.8196 50.6788 44.6673C50.824 44.515 51.0209 44.4294 51.2262 44.4294C51.4315 44.4294 51.6284 44.515 51.7736 44.6673C51.9188 44.8196 52.0003 45.0261 52.0003 45.2415V49.0584C52.0003 49.92 51.6741 50.7462 51.0934 51.3554C50.5127 51.9646 49.7251 52.3069 48.9039 52.3069Z" fill="#253746"/>
<path d="M7.06487 52.3061H3.25571C2.39224 52.3061 1.56413 51.974 0.953571 51.383C0.343008 50.7919 0 49.9903 0 49.1544V46.0027C0.00416742 45.795 0.0912289 45.5969 0.242976 45.45C0.394722 45.3031 0.599364 45.2188 0.813926 45.2148C1.02979 45.2148 1.23681 45.2978 1.38945 45.4456C1.54209 45.5934 1.62785 45.7938 1.62785 46.0027V49.1544C1.62785 49.5723 1.79933 49.9732 2.10461 50.2687C2.4099 50.5642 2.82397 50.7302 3.25571 50.7302H7.06487C7.28074 50.7302 7.48775 50.8133 7.6404 50.961C7.79304 51.1088 7.8788 51.3092 7.8788 51.5182C7.8788 51.7271 7.79304 51.9275 7.6404 52.0753C7.48775 52.2231 7.28074 52.3061 7.06487 52.3061Z" fill="#253746"/>
<path d="M26.1767 38.1218C13.7674 38.1218 5.06717 29.5185 4.94507 29.3813C4.80523 29.2387 4.72693 29.047 4.72693 28.8474C4.72693 28.6478 4.80523 28.456 4.94507 28.3134L18.6823 14.6915C18.817 14.5785 18.9872 14.5166 19.1631 14.5166C19.3389 14.5166 19.5092 14.5785 19.6439 14.6915C26.8025 19.7101 32.2974 14.9508 32.5263 14.6915C32.6699 14.5597 32.8579 14.4865 33.0529 14.4865C33.2479 14.4865 33.4359 14.5597 33.5795 14.6915L47.0572 28.3134C47.1318 28.3863 47.1895 28.4747 47.2264 28.5722C47.2633 28.6696 47.2785 28.7739 47.2709 28.8778C47.2716 28.9829 47.2486 29.0868 47.2037 29.1819C47.1588 29.2769 47.0931 29.3607 47.0114 29.427C39.5781 35.9558 32.4042 38.1218 26.1767 38.1218ZM6.57828 28.8474C9.81415 31.7915 26.2225 44.9711 45.4393 28.8474L33.0147 16.2474C31.0173 17.6592 28.6309 18.4174 26.1843 18.4174C23.7377 18.4174 21.3513 17.6592 19.3539 16.2474L6.57828 28.8474Z" fill="#253746"/>
<path d="M25.9246 34.1827C25.7567 34.1838 25.5928 34.1301 25.4572 34.0295C24.9295 33.6006 21.2695 30.6378 20.0935 29.1193C19.134 27.9863 18.7836 25.999 19.1345 24.8568C19.4853 23.7146 20.1444 22.8244 21.1402 22.1854C23.5224 20.5312 26.4825 23.2616 26.6031 23.3841C26.7277 23.5298 26.7936 23.7178 26.7876 23.9106C26.7817 24.1034 26.7043 24.2869 26.571 24.4243C26.4376 24.5617 26.2582 24.6429 26.0685 24.6517C25.8787 24.6604 25.6928 24.5961 25.5477 24.4716C25.5477 24.4716 23.3415 22.5224 21.9996 23.4414C21.3103 23.8608 20.8644 24.4206 20.5899 25.1877C20.3153 25.9548 20.4772 27.3318 21.1039 28.1112C22.838 30.0573 24.2367 31.2675 26.3317 32.8041C26.4894 32.9311 26.593 33.1148 26.6211 33.3173C26.6491 33.5197 26.5995 33.7254 26.4825 33.8917C26.4136 33.9759 26.3287 34.0451 26.2328 34.0951C26.137 34.1451 26.0321 34.1749 25.9246 34.1827Z" fill="#253746"/>
<path d="M26.1487 34.1827C26.3166 34.1838 26.4805 34.1301 26.6161 34.0295C27.1438 33.6006 30.8038 30.6378 31.9799 29.1193C32.9394 27.9863 33.2897 25.999 32.9389 24.8568C32.5881 23.7146 31.9289 22.8244 30.9332 22.1854C28.5509 20.5312 25.5908 23.2616 25.4702 23.3841C25.3456 23.5298 25.2797 23.7178 25.2856 23.9106C25.2916 24.1034 25.369 24.2869 25.5023 24.4243C25.6357 24.5617 25.8151 24.6429 26.0048 24.6517C26.1946 24.6604 26.3805 24.5961 26.5256 24.4716C26.5256 24.4716 28.7319 22.5224 30.0738 23.4414C30.7631 23.8608 31.2089 24.4206 31.4835 25.1877C31.7581 25.9548 31.5962 27.3318 30.9695 28.1112C29.2353 30.0573 27.8366 31.2675 25.7416 32.8041C25.5839 32.9311 25.4803 33.1148 25.4522 33.3173C25.4242 33.5197 25.4738 33.7254 25.5908 33.8917C25.6597 33.9759 25.7446 34.0451 25.8405 34.0951C25.9363 34.1451 26.0412 34.1749 26.1487 34.1827Z" fill="#253746"/>
</g>
<defs>
<clipPath id="clip0_16_54">
<rect width="52" height="53" fill="white"/>
</clipPath>
</defs>
</svg>
